<?xml version="1.0" encoding="UTF-8"?>
<svg id="Layer_1" data-name="Layer 1" xmlns="http://www.w3.org/2000/svg" version="1.1" viewBox="0 0 16 16">
  <defs>
    <style>
      .cls-1 {
        fill: #8da5f3;
        stroke-width: 0px;
      }
    </style>
  </defs>
  <path class="cls-1" d="M3,1c-1.1,0-2,.9-2,2v10c0,1.1.9,2,2,2h10c1.1,0,2-.9,2-2V3c0-1.1-.9-2-2-2H3ZM3,2h10c.6,0,1,.4,1,1v10c0,.6-.4,1-1,1H3c-.6,0-1-.4-1-1V3c0-.6.4-1,1-1Z"/>
  <path class="cls-1" d="M3.3,2.8c-.3,0-.5.2-.5.5v9.4c0,.3.2.5.5.5h9.4c.3,0,.5-.2.5-.5V3.3c0-.3-.2-.5-.5-.5H3.3Z"/>
</svg>